{"accessors":[{"bufferView":2,"byteOffset":0,"componentType":5126,"count":5056,"max":[1,1,1,1],"min":[0.006584956776350737,0.006584956776350737,0,1],"name":"accessor_color_m0-PolyPaper15_-208702","type":"VEC4"},{"bufferView":0,"byteOffset":0,"componentType":5123,"count":7944,"max":[5055],"min":[0],"name":"accessor_indices_0_m0-PolyPaper15_-208702","type":"SCALAR"},{"bufferView":1,"byteOffset":60672,"componentType":5126,"count":5056,"max":[0.9994051,0.9992799,0.9998136],"min":[-0.999405,-0.9990181,-0.9998136],"name":"accessor_normal_m0-PolyPaper15_-208702","type":"VEC3"},{"bufferView":1,"byteOffset":0,"componentType":5126,"count":5056,"max":[1.992824,1.471113,-0.001070701],"min":[0.6566124,-0.04269822,-1.608836],"name":"accessor_position_m0-PolyPaper15_-208702","type":"VEC3"}],"asset":{"copyright":"Unknown","extras":{"GOOGLE_processor_version":294144208},"generator":"glTF 1-to-2 Upgrader for Google Blocks","version":"2.0"},"bufferViews":[{"buffer":0,"byteLength":15888,"byteOffset":0,"name":"ushortBufferView","target":34963},{"buffer":0,"byteLength":121344,"byteOffset":15888,"byteStride":12,"name":"vec3BufferView","target":34962},{"buffer":0,"byteLength":80896,"byteOffset":137232,"byteStride":16,"name":"vec4BufferView","target":34962}],"buffers":[{"byteLength":218128,"name":"model","uri":"data:application/octet-stream;base64,"}],"cameras":[{"perspective":{"yfov":0.7853981633974483,"znear":0.1000000014901161},"type":"perspective"}],"extensions":{"KHR_lights_punctual":{"lights":[{"color":[1,0.9333333333333333,0.8666666666666667],"intensity":0.25,"name":"headLight","type":"directional"},{"color":[1,0.9333333333333333,0.8666666666666667],"intensity":0.324999988079071,"name":"keyLight","type":"directional"}]}},"extensionsUsed":["GOOGLE_backgrounds","GOOGLE_camera_settings","KHR_lights_punctual"],"extras":{"GOOGLE_initial_camera_motion":{"motionPath":"FULL_ROTATION"},"GOOGLE_lighting_rig":{"disableShadows":false}},"materials":[{"alphaMode":"OPAQUE","doubleSided":false,"name":"BlocksPaper","pbrMetallicRoughness":{"baseColorFactor":[1,1,1,1],"metallicFactor":0,"roughnessFactor":0.6}},{"alphaMode":"BLEND","doubleSided":false,"name":"BlocksGlass","pbrMetallicRoughness":{"baseColorFactor":[0.2,0.2,1,0.3],"metallicFactor":1,"roughnessFactor":0.4}},{"alphaMode":"OPAQUE","doubleSided":true,"name":"BlocksGem","pbrMetallicRoughness":{"baseColorFactor":[1,0.4,1,1],"metallicFactor":0,"roughnessFactor":0.1}}],"meshes":[{"name":"mesh_m0-PolyPaper15_-208702","primitives":[{"attributes":{"COLOR_0":0,"NORMAL":2,"POSITION":3},"indices":1,"material":0,"mode":4}]}],"nodes":[{"mesh":0,"name":"node_MeshObject-205772608-PolyPaper15"},{"children":[2]},{"children":[3],"extras":{"isTransformNode":1},"translation":[1.307303674476594,0.5346787438851783,-0.7815784039029363]},{"children":[0],"translation":[-1.307303674476594,-0.5346787438851783,0.7815784039029363]},{"camera":0,"children":[5],"rotation":[-0.03929866254690714,-0.4147089067607913,-0.01793046190149718,0.9089282899719278],"translation":[-1.073236465454102,1.008286118507385,1.266593813896179]},{"extensions":{"KHR_lights_punctual":{"light":0}},"extras":{"isHeadLight":1},"name":"headLightNode","translation":[-1.236423465798358,0.618211732899179,0.618211732899179]},{"extensions":{"KHR_lights_punctual":{"light":1}},"extras":{"isKeyLight":1},"name":"keyLightNode","rotation":[-0.7505326882858236,-0.3752663441429118,0,0.5439447166468927],"scale":[0,0,1.248787700456341],"translation":[0.01535749105496276,2.905047981709941,-2.043775776085171]}],"scene":0,"scenes":[{"extensions":{"GOOGLE_backgrounds":{"color":[0,0,0]},"GOOGLE_camera_settings":{}},"extras":{"GOOGLE_camera_index":{"cameraIndex":0,"nodeIndex":4},"GOOGLE_geometry_data":{"stats":{"centroid":[1.264145191511304,0.4074725807972582,-0.7949880756288299],"radius":1.236423465798358,"stdev":0.6689737386708136},"visualCenterPoint":[1.307303674476594,0.5346787438851783,-0.7815784039029363]},"GOOGLE_hemi_light":{"groundColor":[0,0,0]}},"name":"defaultScene","nodes":[1,4,6]}]}